<svg id="shihanbank" xmlns="http://www.w3.org/2000/svg" xmlns:xlink="http://www.w3.org/1999/xlink" width="155.567" height="26.297" viewBox="0 0 155.567 26.297">
  <defs>
    <clipPath id="clip-path">
      <path id="Path_19804" data-name="Path 19804" d="M14.9.909a12.94,12.94,0,1,0,.6-.015c-.2,0-.4.005-.6.015" transform="translate(-2.51 -0.894)"/>
    </clipPath>
    <radialGradient id="radial-gradient" cx="0.561" cy="0.334" r="0.469" gradientTransform="matrix(0.988, 0, 0, -1, -0.002, 5.244)" gradientUnits="objectBoundingBox">
      <stop offset="0" stop-color="#fff"/>
      <stop offset="0.337" stop-color="#e9d2b2"/>
      <stop offset="0.654" stop-color="#dab37c"/>
      <stop offset="0.883" stop-color="#d1a25d"/>
      <stop offset="1" stop-color="#ce9b51"/>
    </radialGradient>
    <clipPath id="clip-path-2">
      <path id="Path_19805" data-name="Path 19805" d="M11.8,24.3a8.252,8.252,0,0,1-4.7-1.909,9.064,9.064,0,0,1-2.669-4.3c-.427-1.484-.608-3.219.1-3.083.215.042.592,1,1,1.692A4.533,4.533,0,0,0,6.622,18.05c.145.11.64-.993,1.364-1.62.42-.348.875-.465.953.568.088,1.266-.141,2.773.232,2.773.341,0,1.121-.259,2.835-.407.642-.054,1.01.068.4.93a6.472,6.472,0,0,1-1.686,1.741c1.455,1.363,3.2,1.2,3.233,1.778.019.332-.632.516-1.486.516A6.588,6.588,0,0,1,11.8,24.3m4.9-12.248a2.089,2.089,0,0,1-1.606-1.488,4.383,4.383,0,0,1-.047-1.651,10.963,10.963,0,0,1,1.012-3.223c.592-1.5-.851-2.37-.615-2.918.323-.744,1.354.2,2.508.272.988.053,1.585.007,2.354.108A4.767,4.767,0,0,1,23.1,4.269c.5.586-.265,1.3-1.18.853-.672-.328-1.517-.128-1.02.573a2.237,2.237,0,0,0,1.49.842,1.544,1.544,0,0,1,.575,2.877c-1.288.944-2.6.552-3.119-1.3-.262-.926-.913-1.4-1.585-1.132s-.27,1.477.237,2.6c.874,2.235-.9,2.473-1.575,2.473a1.782,1.782,0,0,1-.223-.013m-.961,12.668c-.015-.3.42-.371.42-.371,3.89-.769,2.752-3.318,1.377-4.62-.58-.545-5.994-5.219-5.994-5.219C6.38,10.061,6.793,6.592,6.793,6.592c.254-4.272,3.988-5.33,6.816-5.083.332.028.517.227.456.5-.06.3-.5.321-.5.321a4.6,4.6,0,0,0-2.318.559c-2.277,1.532-1.61,4.141,1.43,7.045.383.365.789.751,1.209,1.143,0,0,.608.538,1.825,1.692,2.337,2.152,3.616,3.312,3.616,3.312,4.122,3.432,2.709,6.569,1.14,7.658a7.847,7.847,0,0,1-4.276,1.317.323.323,0,0,1-.046,0,.387.387,0,0,1-.409-.349M14.168.013A13.152,13.152,0,1,0,14.77,0q-.3,0-.6.013" transform="translate(-1.615)"/>
    </clipPath>
    <radialGradient id="radial-gradient-2" cx="0.578" cy="0.362" r="1.035" gradientTransform="matrix(0.988, 0, 0, -1, -0.001, 5.245)" gradientUnits="objectBoundingBox">
      <stop offset="0" stop-color="#1abff1"/>
      <stop offset="0.101" stop-color="#15abe2"/>
      <stop offset="0.219" stop-color="#1197d4"/>
      <stop offset="0.223" stop-color="#1196d3"/>
      <stop offset="0.282" stop-color="#1184c7"/>
      <stop offset="0.345" stop-color="#1077bd"/>
      <stop offset="0.411" stop-color="#0f6eb7"/>
      <stop offset="0.483" stop-color="#0e69b4"/>
      <stop offset="0.573" stop-color="#0e67b2"/>
      <stop offset="1" stop-color="#0e67b2"/>
    </radialGradient>
  </defs>
  <g id="Group_43888" data-name="Group 43888" transform="translate(0.174 0.174)">
    <g id="Group_43887" data-name="Group 43887" transform="translate(0)" clip-path="url(#clip-path)">
      <rect id="Rectangle_9666" data-name="Rectangle 9666" width="26.572" height="26.258" transform="translate(-0.309 0)" fill="url(#radial-gradient)"/>
    </g>
  </g>
  <g id="Group_43890" data-name="Group 43890" transform="translate(0)">
    <g id="Group_43889" data-name="Group 43889" clip-path="url(#clip-path-2)">
      <rect id="Rectangle_9667" data-name="Rectangle 9667" width="26.928" height="26.611" transform="translate(-0.314)" fill="url(#radial-gradient-2)"/>
    </g>
  </g>
  <path id="Path_19806" data-name="Path 19806" d="M171.3,41.611a6.93,6.93,0,0,0,3.87,1.366c1.418,0,2.277-.613,2.277-1.786,0-.911-.368-1.49-1.524-2.066a16.968,16.968,0,0,1-3.432-1.962,4.113,4.113,0,0,1-1.558-3.24c0-2.031,1.68-3.448,4.483-3.448a9.858,9.858,0,0,1,4.044.77V33.4c0,.315-.3.42-.544.21a4.721,4.721,0,0,0-3.152-1.208c-1.243,0-1.943.578-1.943,1.523a1.815,1.815,0,0,0,.7,1.524,14.177,14.177,0,0,0,2.925,1.7c1.82.858,2.889,1.872,2.889,4.009,0,2.662-2.26,3.765-5.131,3.765-2.119,0-4.8-1.015-4.447-1.891Z" transform="translate(-137.837 -24.548)" fill="#717271"/>
  <path id="Path_19807" data-name="Path 19807" d="M226.927,31.425h2.993v4.886a4.16,4.16,0,0,1,2.767-1.015c2.206,0,3.66,1.278,3.66,3.134v7.038H233.6V38.8c0-1-.508-1.453-1.594-1.453a3.575,3.575,0,0,0-2.084.822v7.3h-2.749V33.176a1.534,1.534,0,0,0-.439-1.261c-.208-.263-.068-.49.2-.49" transform="translate(-182.868 -25.313)" fill="#717271"/>
  <path id="Path_19808" data-name="Path 19808" d="M289.52,33.235v9.841h-2.749V34.968a1.626,1.626,0,0,0-.438-1.225c-.211-.264-.07-.509.175-.509Zm.106-3.117a1.664,1.664,0,1,1-1.664-1.663,1.621,1.621,0,0,1,1.664,1.663" transform="translate(-230.876 -22.921)" fill="#717271"/>
  <path id="Path_19809" data-name="Path 19809" d="M313.472,51.655H316.4v.964a3.936,3.936,0,0,1,2.819-1.3c2.084,0,3.678,1.173,3.678,3.327V61.5h-2.75v-6.6c0-1.1-.489-1.594-1.594-1.594a3.047,3.047,0,0,0-2.066.876V61.5h-2.749V53.423a1.6,1.6,0,0,0-.436-1.261c-.228-.263-.088-.508.174-.508" transform="translate(-252.587 -41.34)" fill="#717271"/>
  <path id="Path_19810" data-name="Path 19810" d="M372.6,31.425H375.6v4.886a4.157,4.157,0,0,1,2.765-1.015c2.208,0,3.661,1.278,3.661,3.134v7.038h-2.749V38.8c0-1-.508-1.453-1.6-1.453a3.571,3.571,0,0,0-2.082.822v7.3h-2.75V33.176a1.535,1.535,0,0,0-.438-1.261c-.209-.263-.069-.49.193-.49" transform="translate(-300.211 -25.313)" fill="#717271"/>
  <path id="Path_19811" data-name="Path 19811" d="M435.236,53.179a5.857,5.857,0,0,0-2.977,1c-.385.262-.614.122-.614-.281V52.057a10.463,10.463,0,0,1,3.766-.735c2.714,0,4.272,1.051,4.272,3.222V61.5h-2.7V60.427a3.821,3.821,0,0,1-3.045,1.383,3.06,3.06,0,0,1-3.31-3.117c0-2.1,1.454-3.414,4.536-3.414h1.769v-.736c0-.963-.612-1.365-1.7-1.365m1.7,3.922h-1.787c-1.348,0-1.873.613-1.873,1.542a1.186,1.186,0,0,0,1.26,1.3,3.177,3.177,0,0,0,2.4-1.139V57.1Z" transform="translate(-347.191 -41.34)" fill="#717271"/>
  <path id="Path_19812" data-name="Path 19812" d="M486.429,51.655h2.923v.964a3.939,3.939,0,0,1,2.82-1.3c2.084,0,3.678,1.173,3.678,3.327V61.5H493.1v-6.6c0-1.1-.49-1.594-1.594-1.594a3.046,3.046,0,0,0-2.065.876V61.5h-2.749V53.423a1.594,1.594,0,0,0-.437-1.261c-.228-.263-.088-.508.175-.508" transform="translate(-391.905 -41.34)" fill="#717271"/>
  <path id="Path_19813" data-name="Path 19813" d="M573.808,33.4h4.816c2.872,0,4.693,1.313,4.693,3.432a3.18,3.18,0,0,1-1.541,2.924,3.3,3.3,0,0,1,2.276,3.4c0,2.575-2.083,3.9-5.217,3.9h-4.763V35.174a1.592,1.592,0,0,0-.439-1.261c-.209-.263-.069-.508.176-.508m3.117,5.569h1.505c1.313,0,2.031-.491,2.031-1.8,0-1.33-.718-1.821-2.083-1.821h-1.453v3.625ZM581.11,43c0-1.454-.806-2.083-2.451-2.083h-1.733v4.2h1.751c1.646,0,2.434-.648,2.434-2.118" transform="translate(-462.298 -26.908)" fill="#717271"/>
  <path id="Path_19814" data-name="Path 19814" d="M638.089,53.179a5.864,5.864,0,0,0-2.977,1c-.385.262-.613.122-.613-.281V52.057a10.459,10.459,0,0,1,3.765-.735c2.714,0,4.272,1.051,4.272,3.222V61.5h-2.7V60.427a3.824,3.824,0,0,1-3.047,1.383,3.059,3.059,0,0,1-3.308-3.117c0-2.1,1.453-3.414,4.534-3.414h1.769v-.736c0-.963-.613-1.365-1.7-1.365m1.7,3.922H638c-1.348,0-1.874.613-1.874,1.542a1.186,1.186,0,0,0,1.261,1.3,3.177,3.177,0,0,0,2.4-1.139V57.1Z" transform="translate(-510.593 -41.34)" fill="#717271"/>
  <path id="Path_19815" data-name="Path 19815" d="M689.276,51.655H692.2v.964a3.939,3.939,0,0,1,2.82-1.3c2.083,0,3.677,1.173,3.677,3.327V61.5h-2.749v-6.6c0-1.1-.49-1.594-1.594-1.594a3.047,3.047,0,0,0-2.066.876V61.5h-2.749V53.423a1.6,1.6,0,0,0-.437-1.261c-.228-.263-.088-.508.175-.508" transform="translate(-555.3 -41.34)" fill="#717271"/>
  <path id="Path_19816" data-name="Path 19816" d="M748.65,45.47V33.178a1.53,1.53,0,0,0-.44-1.26c-.209-.263-.069-.49.194-.49H751.4v8.055l3.485-3.852h3.151l-3.764,4.2,4.22,5.638h-3.03l-3.029-4.115c-.315-.438-.455-.507-.788-.507H751.4V45.47Z" transform="translate(-602.923 -25.315)" fill="#717271"/>
</svg>
